 <svg  version="1.0" xmlns="http://www.w3.org/2000/svg"  width="300.000000pt" height="300.000000pt" viewBox="0 0 300.000000 300.000000"  preserveAspectRatio="xMidYMid meet">  <g transform="translate(0.000000,300.000000) scale(0.100000,-0.100000)" fill="#2359f1" stroke="none"> <path d="M1470 2196 c-134 -22 -275 -96 -347 -182 l-36 -42 -54 54 c-98 98 -282 164 -455 164 -81 0 -241 -30 -321 -60 -129 -49 -138 -76 -144 -438 -5 -285 4 -414 39 -547 34 -127 99 -178 260 -205 63 -10 86 -10 123 0 76 21 91 66 60 180 -8 30 -15 81 -15 114 l0 58 32 -6 c80 -16 140 -18 189 -6 61 15 135 46 144 60 10 16 35 11 35 -6 0 -23 62 -145 96 -188 35 -44 133 -121 183 -143 112 -47 154 -56 291 -56 157 0 220 16 315 78 128 85 205 241 205 415 0 98 -29 154 -97 189 -67 34 -307 -22 -362 -85 -12 -14 -21 -38 -21 -58 0 -34 15 -52 79 -96 50 -34 9 -140 -54 -140 -64 0 -115 55 -148 159 -25 79 -23 253 3 324 28 75 56 99 111 95 41 -3 44 -5 74 -62 17 -33 37 -62 44 -64 25 -8 79 9 136 43 57 35 74 35 75 -1 0 -19 35 -44 61 -44 13 0 58 9 99 20 94 25 153 26 171 3 22 -26 16 -284 -11 -486 -12 -93 -19 -183 -16 -201 17 -89 154 -129 306 -90 161 41 205 90 166 185 -29 72 -47 218 -49 400 -2 208 -8 194 102 228 124 38 171 90 171 191 0 93 -43 224 -81 248 -15 10 -34 8 -96 -9 -187 -52 -301 -63 -514 -49 -195 13 -220 8 -255 -46 -17 -25 -17 -25 -38 -6 -63 58 -156 96 -269 111 -90 13 -87 13 -187 -3z m-805 -352 c103 -48 64 -194 -51 -194 -57 0 -68 20 -59 103 5 44 14 67 31 84 27 27 35 28 79 7z"/> </g> </svg> 